# xmcd
#
# Track frame offsets: 
#        150
#        16848
#        36846
#        55494
#        73992
#        94215
#        111363
#        134061
#
# Disc length: 2002 seconds
#
# Revision: 0
# Processed by: cddbd v1.5.2PL0 Copyright (c) Steve Scherf et al.
# Submitted via: ExactAudioCopy v0.90b4
#
DISCID=7807d008
DTITLE=Jerome Lee - Life This Time
DYEAR=2008
DGENRE=Funk
TTITLE0=Prettiest Girl
TTITLE1=Monkey Slide
TTITLE2=Reach
TTITLE3=In My Heart
TTITLE4=Druk Op De Een
TTITLE5=Time Gone Away
TTITLE6=Homecoming
TTITLE7=Student Jam
EXTD=
EXTT0=
EXTT1=
EXTT2=
EXTT3=
EXTT4=
EXTT5=
EXTT6=
EXTT7=
PLAYORDER=
